:version 1.10
:name ASF
:units
  mass 1
  length 1
  angle deg
:documentation
  ASF file generated by Kaydara
:root
  axis xyz
  order  tx ty tz rx ry rz
  position 0 0 0
  orientation 0 0 0
:bonedata
  begin
    id 1
    name RightUpLegDummy
    direction -0.718183 -0.695806 0.00816078
    length 4.904
    axis 0 0 0 xyz
  end
  begin
    id 2
    name RightUpLeg
    direction 3.53373e-006 -0.995788 0.0916898
    length 17.4976
    axis -3.49089 -0.000906625 0.000286804 xyz
    dof rx ry rz
  end
  begin
    id 3
    name RightLeg
    direction 0.00371092 -0.995096 -0.0988419
    length 16.5821
    axis 3.68512 0.0193738 -0.131023 xyz
    dof rx ry rz
  end
  begin
    id 4
    name RightFoot
    direction 0.00079151 -0.46099 0.887405
    length 3.77069
    axis 4.81691e-005 -0.120479 -0.188788 xyz
    dof rx ry rz
  end
  begin
    id 5
    name RightToes
    direction 0 0 0
    length 0
    axis 0 0 0 xyz
    dof rx ry rz
  end
  begin
    id 6
    name SpineDummy
    direction 8.3039e-015 1 4.57515e-016
    length 4.6813
    axis 0 0 0 xyz
  end
  begin
    id 7
    name Spine
    direction -3.15643e-008 0.999988 0.00495137
    length 10.1015
    axis -0.001389 0.000121418 2.40972e-006 xyz
    dof rx ry rz
  end
  begin
    id 8
    name Spine1
    direction 0 0 0
    length 0
    axis -0.001389 0.000121451 1.30017e-006 xyz
    dof rx ry rz
  end
  begin
    id 9
    name HEadDummy
    direction -1.99912e-008 0.999999 0.00127422
    length 3.43865
    axis -0.001389 0.000121451 1.30017e-006 xyz
  end
  begin
    id 10
    name HEad
    direction 0 0 0
    length 0
    axis 0 0 0 xyz
    dof rx ry rz
  end
  begin
    id 11
    name LeftShoulder1Dummy
    direction 0.998891 -0.0402509 -0.0244456
    length 3.5433
    axis -0.001389 0.000121451 1.30017e-006 xyz
  end
  begin
    id 12
    name LeftShoulder1
    direction 0.99951 -0.000327763 0.0313091
    length 4.05031
    axis -0.001389 0.000121451 1.30017e-006 xyz
    dof rx ry rz
  end
  begin
    id 13
    name LeftArm
    direction 0.998561 -0.00100056 -0.0536182
    length 10.3537
    axis -23.1894 0.134784 0.967509 xyz
    dof rx ry rz
  end
  begin
    id 14
    name LeftForeArm
    direction 0.998903 0.00866432 0.046012
    length 8.70632
    axis -9.91835 -0.06569 -0.177794 xyz
    dof rx ry rz
  end
  begin
    id 15
    name LeftHand
    direction 0 0 0
    length 0
    axis 0 0 0 xyz
    dof rx ry rz
  end
  begin
    id 16
    name RightShoulderDummy
    direction -0.998891 -0.0402509 -0.0244414
    length 3.5433
    axis -0.001389 0.000121451 1.30017e-006 xyz
  end
  begin
    id 17
    name RightShoulder
    direction -0.99951 -0.000327807 0.0313133
    length 4.05031
    axis 0.215806 0.000203643 -0.0068026 xyz
    dof rx ry rz
  end
  begin
    id 18
    name RightArm
    direction -0.998573 -0.000999564 -0.053403
    length 10.3947
    axis -23.2009 -0.134239 -0.964101 xyz
    dof rx ry rz
  end
  begin
    id 19
    name RightForeArm
    direction -0.998898 0.00868028 0.0461306
    length 8.68355
    axis -9.92322 0.0658061 0.178868 xyz
    dof rx ry rz
  end
  begin
    id 20
    name RightHand
    direction 0 0 0
    length 0
    axis 0 0 0 xyz
    dof rx ry rz
  end
  begin
    id 21
    name LeftUpLegDummy
    direction 0.718183 -0.695806 0.00816078
    length 4.904
    axis 0 0 0 xyz
  end
  begin
    id 22
    name LeftUpLeg
    direction -6.81752e-006 -0.995793 0.0916337
    length 17.4976
    axis -3.48766 0.00143442 -0.000524262 xyz
    dof rx ry rz
  end
  begin
    id 23
    name LeftLeg
    direction -0.00601358 -0.995091 -0.0987824
    length 16.5821
    axis 3.68178 -0.00654042 -0.000285133 xyz
    dof rx ry rz
  end
  begin
    id 24
    name LeftFoot
    direction -0.00417578 -0.460984 0.887399
    length 3.77069
    axis 1.87233e-006 4.66016e-005 -8.6538e-006 xyz
    dof rx ry rz
  end
  begin
    id 25
    name LeftToes
    direction 0 0 0
    length 0
    axis 0 0 0 xyz
    dof rx ry rz
  end
:hierarchy
  begin
    root RightUpLegDummy SpineDummy LeftUpLegDummy
    RightUpLegDummy RightUpLeg
    RightUpLeg RightLeg
    RightLeg RightFoot
    RightFoot RightToes
    SpineDummy Spine
    Spine Spine1
    Spine1 HEadDummy LeftShoulder1Dummy RightShoulderDummy
    HEadDummy HEad
    LeftShoulder1Dummy LeftShoulder1
    LeftShoulder1 LeftArm
    LeftArm LeftForeArm
    LeftForeArm LeftHand
    RightShoulderDummy RightShoulder
    RightShoulder RightArm
    RightArm RightForeArm
    RightForeArm RightHand
    LeftUpLegDummy LeftUpLeg
    LeftUpLeg LeftLeg
    LeftLeg LeftFoot
    LeftFoot LeftToes
  end

:SAMPLES-PER-SECOND 30
:FULLY-SPECIFIED
:DEGREES
1
root  12.9275 40.5492 9.69299 85.8981 87.9521 89.5863
RightUpLeg  -0.733633 -13.0003 -13.0638
RightLeg  8.28162 -6.97821 2.2142
RightFoot  0.397716 -0.361385 3.55303
RightToes  0.000481921 0.542163 -0.142578
Spine  0.271696 -0.195999 1.01447
Spine1  15.3984 -0.513838 0.992928
HEad  10.5742 1.11745 -1.69409
LeftShoulder1  9.2428 -13.7268 -46.8585
LeftArm  -13.2969 3.77253 -30.1011
LeftForeArm  175.758 -53.2856 -166.968
LeftHand  -0.25398 0.0180481 5.50724
RightShoulder  5.79813 9.78542 37.6015
RightArm  -4.57232 -5.43306 39.0462
RightForeArm  161.298 53.3663 165.823
RightHand  -1.21113 2.61908 -17.6986
LeftUpLeg  1.62402 7.78876 7.85556
LeftLeg  1.51693 14.5226 -3.98358
LeftFoot  3.64583 0.63158 -5.01673
LeftToes  1.06245e-005 4.65869e-005 -8.65517e-006
2
root  12.9239 40.5488 9.69299 86.224 87.9615 89.9217
RightUpLeg  -0.733449 -13.0031 -13.0531
RightLeg  8.30375 -6.97562 2.20049
RightFoot  0.375539 -0.361949 3.56179
RightToes  0.000481921 0.542163 -0.142578
Spine  0.276785 -0.193524 0.956155
Spine1  15.4336 -0.541375 1.07084
HEad  10.5391 1.14363 -1.71234
LeftShoulder1  9.2428 -13.704 -46.9075
LeftArm  -13.3198 3.72112 -30.0967
LeftForeArm  175.7 -53.3042 -166.956
LeftHand  -0.25398 0.0180481 5.50724
RightShoulder  5.78394 9.76243 37.5712
RightArm  -4.54054 -5.34754 39.1346
RightForeArm  161.282 53.3931 165.808
RightHand  -1.19838 2.55134 -17.6594
LeftUpLeg  1.60287 7.79792 7.86794
LeftLeg  1.56588 14.5057 -3.97123
LeftFoot  3.63241 0.634061 -5.05544
LeftToes  1.06245e-005 4.65869e-005 -8.65517e-006
3
root  12.9188 40.5468 9.69299 86.3343 87.9652 90.0544
RightUpLeg  -0.734911 -13.0183 -13.0495
RightLeg  8.34403 -6.95866 2.18552
RightFoot  0.345475 -0.362855 3.57584
RightToes  0.000481921 0.542163 -0.142578
Spine  0.304537 -0.180586 0.897037
Spine1  15.4544 -0.542346 1.12171
HEad  10.5253 1.11407 -1.71938
LeftShoulder1  9.2428 -13.6881 -46.9458
LeftArm  -13.3049 3.64838 -30.0993
LeftForeArm  175.607 -53.3452 -166.93
LeftHand  -0.25398 0.0180481 5.50724
RightShoulder  5.77642 9.74495 37.572
RightArm  -4.5007 -5.25574 39.199
RightForeArm  161.399 53.4195 165.805
RightHand  -1.17945 2.50807 -17.4788
LeftUpLeg  1.57828 7.80547 7.87389
LeftLeg  1.64849 14.4882 -3.94935
LeftFoot  3.60271 0.634299 -5.05914
LeftToes  1.06245e-005 4.65869e-005 -8.65517e-006
4
root  12.9159 40.5442 9.69299 86.508 87.9592 90.243
RightUpLeg  -0.743405 -13.053 -13.0592
RightLeg  8.3915 -6.93892 2.1777
RightFoot  0.322649 -0.363937 3.59264
RightToes  0.000481921 0.542163 -0.142578
Spine  0.330621 -0.160099 0.898589
Spine1  15.4451 -0.500121 1.06202
HEad  10.5406 1.01745 -1.68156
LeftShoulder1  9.2428 -13.6974 -46.8972
LeftArm  -13.2374 3.60877 -30.1314
LeftForeArm  175.51 -53.3801 -166.907
LeftHand  -0.25398 0.0180481 5.50724
RightShoulder  5.78174 9.7356 37.6405
RightArm  -4.4448 -5.19132 39.144
RightForeArm  161.52 53.4449 165.801
RightHand  -1.16799 2.52449 -17.2798
LeftUpLeg  1.55115 7.80202 7.8647
LeftLeg  1.7244 14.4733 -3.92696
LeftFoot  3.5678 0.632256 -5.02727
LeftToes  1.06245e-005 4.65869e-005 -8.65517e-006
5
root  12.9152 40.5418 9.69299 87.149 87.9521 90.8885
RightUpLeg  -0.754838 -13.0881 -13.073
RightLeg  8.43862 -6.92221 2.1732
RightFoot  0.300436 -0.36452 3.60169
RightToes  0.000481921 0.542163 -0.142578
Spine  0.344867 -0.144205 0.925919
Spine1  15.4145 -0.448713 0.960435
HEad  10.5753 0.946443 -1.59864
LeftShoulder1  9.2449 -13.7276 -46.8092
LeftArm  -13.1769 3.62052 -30.1548
LeftForeArm  175.447 -53.4023 -166.892
LeftHand  -0.25398 0.0180481 5.50724
RightShoulder  5.78996 9.72628 37.7301
RightArm  -4.37204 -5.14554 39.0371
RightForeArm  161.437 53.4744 165.781
RightHand  -1.17879 2.60152 -17.275
LeftUpLeg  1.52428 7.79588 7.85357
LeftLeg  1.77629 14.4562 -3.90963
LeftFoot  3.54169 0.632217 -5.02667
LeftToes  1.06245e-005 4.65869e-005 -8.65517e-006
